<svg id="Capa_1" enable-background="new 0 0 512 512" height="512" viewBox="0 0 512 512" width="512" xmlns="http://www.w3.org/2000/svg"><g><g><path d="m497 391.5h-482c-8.284 0-15-6.716-15-15v-361.5c0-8.284 6.716-15 15-15h482c8.284 0 15 6.716 15 15v361.5c0 8.284-6.716 15-15 15z" fill="#c7eefe"/></g><path d="m497 0h-241v391.5h241c8.284 0 15-6.716 15-15v-361.5c0-8.284-6.716-15-15-15z" fill="#9fdafe"/><g><path d="m331.5 195.75c0 74.972-60.778 135.75-135.75 135.75s-135.75-60.778-135.75-135.75 60.778-135.75 135.75-135.75z" fill="#fbef5a"/></g><path d="m256 317.419c44.741-22.198 75.5-68.338 75.5-121.669l-75.5-75.5z" fill="#ffd24d"/><g><path d="m331.5 195.75h-135.75v-135.75c74.972 0 135.75 60.778 135.75 135.75z" fill="#dd5365"/></g><g><path d="m436.75 90.25h-60.25c-8.284 0-15-6.716-15-15s6.716-15 15-15h60.25c8.284 0 15 6.716 15 15s-6.716 15-15 15z" fill="#12254c"/></g><g><path d="m436.75 150.5h-60.25c-8.284 0-15-6.716-15-15s6.716-15 15-15h60.25c8.284 0 15 6.716 15 15s-6.716 15-15 15z" fill="#12254c"/></g><g><path d="m436.75 331.25h-60.25c-8.284 0-15-6.716-15-15v-120.5c0-8.284 6.716-15 15-15h60.25c8.284 0 15 6.716 15 15v120.5c0 8.284-6.716 15-15 15z" fill="#64afb4"/></g><path d="m256 195.75h75.5c0-53.331-30.759-99.471-75.5-121.669z" fill="#d10057"/><g><path d="m316.25 502h-120.5c-8.284 0-15-6.716-15-15v-60.25c0-8.284 6.716-15 15-15h120.5c8.284 0 15 6.716 15 15v60.25c0 8.284-6.716 15-15 15z" fill="#27488f"/></g><path d="m316.25 411.75h-60.25v90.25h60.25c8.284 0 15-6.716 15-15v-60.25c0-8.284-6.716-15-15-15z" fill="#1b3b6b"/><g><path d="m497 451.75h-482c-8.284 0-15-6.716-15-15v-60.25h512v60.25c0 8.284-6.716 15-15 15z" fill="#1b3b6b"/></g><g><path d="m376.5 512h-241c-8.284 0-15-6.716-15-15s6.716-15 15-15h241c8.284 0 15 6.716 15 15s-6.716 15-15 15z" fill="#1b3b6b"/></g><g fill="#12254c"><path d="m376.5 482h-120.5v30h120.5c8.284 0 15-6.716 15-15s-6.716-15-15-15z"/><path d="m256 451.75h241c8.284 0 15-6.716 15-15v-60.25h-256z"/></g></g></svg>